<svg width="1024" height="1024" viewBox="0 0 1024 1024" fill="none" xmlns="http://www.w3.org/2000/svg">
  <defs>
    <linearGradient id="bg" x1="176" y1="112" x2="860" y2="912" gradientUnits="userSpaceOnUse">
      <stop offset="0" stop-color="#163E67"/>
      <stop offset="0.52" stop-color="#0C243C"/>
      <stop offset="1" stop-color="#081726"/>
    </linearGradient>
    <radialGradient id="redGlow" cx="0" cy="0" r="1" gradientUnits="userSpaceOnUse" gradientTransform="translate(350 282) rotate(62.5) scale(304.601)">
      <stop offset="0" stop-color="#FF5E6C" stop-opacity="0.68"/>
      <stop offset="1" stop-color="#FF5E6C" stop-opacity="0"/>
    </radialGradient>
    <filter id="dropShadow" x="214" y="126" width="596" height="748" filterUnits="userSpaceOnUse" color-interpolation-filters="sRGB">
      <feFlood flood-opacity="0" result="BackgroundImageFix"/>
      <feColorMatrix in="SourceAlpha" type="matrix" values="0 0 0 0 0 0 0 0 0 0 0 0 0 0 0 0 0 0 127 0" result="hardAlpha"/>
      <feOffset dy="22"/>
      <feGaussianBlur stdDeviation="24"/>
      <feColorMatrix type="matrix" values="0 0 0 0 0.0156863 0 0 0 0 0.0901961 0 0 0 0 0.168627 0 0 0 0.28 0"/>
      <feBlend mode="normal" in2="BackgroundImageFix" result="effect1_dropShadow_1_1"/>
      <feBlend mode="normal" in="SourceGraphic" in2="effect1_dropShadow_1_1" result="shape"/>
    </filter>
  </defs>

  <rect width="1024" height="1024" rx="220" fill="url(#bg)"/>
  <circle cx="350" cy="282" r="280" fill="url(#redGlow)"/>
  <circle cx="804" cy="790" r="168" fill="#F7B538" fill-opacity="0.09"/>

  <g opacity="0.16" stroke="#D9E6F2" stroke-width="18">
    <circle cx="512" cy="512" r="320"/>
    <circle cx="512" cy="512" r="246"/>
  </g>

  <g filter="url(#dropShadow)" transform="translate(512 488) scale(1.25) translate(-512 -488)">
    <path
      d="M512 190C402 190 300 232 300 352C300 526 390 662 512 786C634 662 724 526 724 352C724 232 622 190 512 190Z"
      fill="#F8FAFC"
      stroke="#F7B538"
      stroke-width="14"
    />
    <path
      d="M512 250C429 250 360 315 360 398C360 510 468 621 512 660C556 621 664 510 664 398C664 315 595 250 512 250Z"
      fill="#D7263D"
    />
    <circle cx="512" cy="402" r="82" fill="#F8FAFC"/>
    <rect x="486" y="346" width="52" height="112" rx="18" fill="#D7263D"/>
    <rect x="456" y="376" width="112" height="52" rx="18" fill="#D7263D"/>
  </g>
</svg>
